<svg width="100" height="100" viewBox="0 0 100 100" fill="none" xmlns="http://www.w3.org/2000/svg">
    <g clip-path="url(#clip0_506_31)">
        <path d="M6.90994 73.2759L11.2779 84.2919L15.6699 73.2759H20.7819L13.1499 91.3719H9.40594L1.79794 73.2759H6.90994ZM29.8406 83.4279C29.6966 82.8199 29.4006 82.3319 28.9526 81.9639C28.5046 81.5959 27.9606 81.4119 27.3206 81.4119C26.6486 81.4119 26.0966 81.5879 25.6646 81.9399C25.2486 82.2919 24.9846 82.7879 24.8726 83.4279H29.8406ZM24.7526 85.9479C24.7526 87.8199 25.6326 88.7559 27.3926 88.7559C28.3366 88.7559 29.0486 88.3719 29.5286 87.6039H33.7286C32.8806 90.4199 30.7606 91.8279 27.3686 91.8279C26.3286 91.8279 25.3766 91.6759 24.5126 91.3719C23.6486 91.0519 22.9046 90.6039 22.2806 90.0279C21.6726 89.4519 21.2006 88.7639 20.8646 87.9639C20.5286 87.1639 20.3606 86.2679 20.3606 85.2759C20.3606 84.2519 20.5206 83.3319 20.8406 82.5159C21.1606 81.6839 21.6166 80.9799 22.2086 80.4039C22.8006 79.8279 23.5126 79.3879 24.3446 79.0839C25.1926 78.7639 26.1446 78.6039 27.2006 78.6039C28.2406 78.6039 29.1766 78.7639 30.0086 79.0839C30.8406 79.3879 31.5446 79.8359 32.1206 80.4279C32.6966 81.0199 33.1366 81.7479 33.4406 82.6119C33.7446 83.4599 33.8966 84.4199 33.8966 85.4919V85.9479H24.7526ZM40.7237 71.4519V91.3719H36.3797V71.4519H40.7237ZM47.7962 85.1559C47.7962 85.5719 47.8682 85.9559 48.0122 86.3079C48.1722 86.6439 48.3722 86.9399 48.6122 87.1959C48.8682 87.4519 49.1642 87.6519 49.5002 87.7959C49.8522 87.9399 50.2202 88.0119 50.6042 88.0119C50.9882 88.0119 51.3482 87.9399 51.6842 87.7959C52.0362 87.6519 52.3322 87.4519 52.5722 87.1959C52.8282 86.9399 53.0282 86.6439 53.1722 86.3079C53.3322 85.9559 53.4122 85.5799 53.4122 85.1799C53.4122 84.7959 53.3322 84.4359 53.1722 84.0999C53.0282 83.7479 52.8282 83.4439 52.5722 83.1879C52.3322 82.9319 52.0362 82.7319 51.6842 82.5879C51.3482 82.4439 50.9882 82.3719 50.6042 82.3719C50.2202 82.3719 49.8522 82.4439 49.5002 82.5879C49.1642 82.7319 48.8682 82.9319 48.6122 83.1879C48.3722 83.4439 48.1722 83.7399 48.0122 84.0759C47.8682 84.4119 47.7962 84.7719 47.7962 85.1559ZM43.2122 85.1079C43.2122 84.1959 43.3962 83.3479 43.7642 82.5639C44.1322 81.7639 44.6442 81.0759 45.3002 80.4999C45.9562 79.9079 46.7322 79.4439 47.6282 79.1079C48.5402 78.7719 49.5322 78.6039 50.6042 78.6039C51.6602 78.6039 52.6362 78.7719 53.5322 79.1079C54.4442 79.4279 55.2282 79.8839 55.8842 80.4759C56.5562 81.0519 57.0762 81.7479 57.4442 82.5639C57.8122 83.3639 57.9962 84.2519 57.9962 85.2279C57.9962 86.2039 57.8042 87.0999 57.4202 87.9159C57.0522 88.7159 56.5402 89.4119 55.8842 90.0039C55.2282 90.5799 54.4362 91.0279 53.5082 91.3479C52.5962 91.6679 51.6042 91.8279 50.5322 91.8279C49.4762 91.8279 48.5002 91.6679 47.6042 91.3479C46.7082 91.0279 45.9322 90.5719 45.2762 89.9799C44.6362 89.3879 44.1322 88.6839 43.7642 87.8679C43.3962 87.0359 43.2122 86.1159 43.2122 85.1079ZM60.4969 79.0599H64.8409V80.5719C66.0249 79.4359 67.3529 78.8679 68.8249 78.8679C70.6489 78.8679 72.0409 79.6359 73.0009 81.1719C73.9769 79.6199 75.3689 78.8439 77.1769 78.8439C77.7529 78.8439 78.2969 78.9319 78.8089 79.1079C79.3209 79.2679 79.7609 79.5319 80.1289 79.8999C80.4969 80.2519 80.7849 80.7159 80.9929 81.2919C81.2169 81.8679 81.3289 82.5639 81.3289 83.3799V91.3719H76.9849V85.2999C76.9849 84.6759 76.9369 84.1639 76.8409 83.7639C76.7609 83.3639 76.6329 83.0519 76.4569 82.8279C76.2969 82.6039 76.1049 82.4519 75.8809 82.3719C75.6569 82.2919 75.4169 82.2519 75.1609 82.2519C73.7689 82.2519 73.0729 83.2679 73.0729 85.2999V91.3719H68.7289V85.2999C68.7289 84.6759 68.6889 84.1639 68.6089 83.7639C68.5289 83.3479 68.4089 83.0199 68.2489 82.7799C68.1049 82.5399 67.9129 82.3799 67.6729 82.2999C67.4329 82.2039 67.1529 82.1559 66.8329 82.1559C66.5609 82.1559 66.3049 82.1959 66.0649 82.2759C65.8249 82.3559 65.6089 82.5159 65.4169 82.7559C65.2409 82.9799 65.0969 83.2999 64.9849 83.7159C64.8889 84.1159 64.8409 84.6439 64.8409 85.2999V91.3719H60.4969V79.0599ZM93.3094 83.4279C93.1654 82.8199 92.8694 82.3319 92.4214 81.9639C91.9734 81.5959 91.4294 81.4119 90.7894 81.4119C90.1174 81.4119 89.5654 81.5879 89.1334 81.9399C88.7174 82.2919 88.4534 82.7879 88.3414 83.4279H93.3094ZM88.2214 85.9479C88.2214 87.8199 89.1014 88.7559 90.8614 88.7559C91.8054 88.7559 92.5174 88.3719 92.9974 87.6039H97.1974C96.3494 90.4199 94.2294 91.8279 90.8374 91.8279C89.7974 91.8279 88.8454 91.6759 87.9814 91.3719C87.1174 91.0519 86.3734 90.6039 85.7494 90.0279C85.1414 89.4519 84.6694 88.7639 84.3334 87.9639C83.9974 87.1639 83.8294 86.2679 83.8294 85.2759C83.8294 84.2519 83.9894 83.3319 84.3094 82.5159C84.6294 81.6839 85.0854 80.9799 85.6774 80.4039C86.2694 79.8279 86.9814 79.3879 87.8134 79.0839C88.6614 78.7639 89.6134 78.6039 90.6694 78.6039C91.7094 78.6039 92.6454 78.7639 93.4774 79.0839C94.3094 79.3879 95.0134 79.8359 95.5894 80.4279C96.1654 81.0199 96.6054 81.7479 96.9094 82.6119C97.2134 83.4599 97.3654 84.4199 97.3654 85.4919V85.9479H88.2214Z" fill="url(#paint0_linear_506_31)"/>
        <path d="M6.28613 66.3459L32.6747 6.37671L50.1277 45.6858L40.9831 66.3459H6.28613Z" fill="#01959F"/>
        <path d="M93.9697 66.372L67.5812 6.40283L50.1282 45.7119L59.2727 66.372H93.9697Z" fill="#009688"/>
    </g>
    <defs>
        <linearGradient id="paint0_linear_506_31" x1="56.938" y1="85.4461" x2="40.1453" y2="91.4994" gradientUnits="userSpaceOnUse">
            <stop stop-color="#009688"/>
            <stop offset="1" stop-color="#01959F"/>
        </linearGradient>
        <clipPath id="clip0_506_31">
            <rect width="100" height="100" fill="white"/>
        </clipPath>
    </defs>
</svg>
